<svg version="1.1" xmlns="http://www.w3.org/2000/svg" xmlns:xlink="http://www.w3.org/1999/xlink" width="500" height="500"><g data-paper-data="{&quot;description&quot;:&quot;Logo for Quest Love\n===================\n\nThis logo was generated by MarkMaker at http://emblemmatic.org/markmaker/ and may be composed of elements designed by others.\n\nThe font is Geo Oblique designed by Ben Weiner and released under the OFL license via Google Fonts: https://www.google.com/fonts/specimen/Geo. The font includes this copyright statement: Copyright (c) 2000-2010, Ben Weiner (ben@readingtype.org.uk), with Reserved Font Name Geo.\n\nMarkMaker uses semantic data from the Princeton University WordNet database http://wordnet.princeton.edu and font descriptions from Google Fonts https://www.google.com/fonts.&quot;}" fill="#0d3a3f" fill-rule="nonzero" stroke="none" stroke-width="1" stroke-linecap="butt" stroke-linejoin="miter" stroke-miterlimit="10" stroke-dasharray="" stroke-dashoffset="0" font-family="none" font-weight="none" font-size="none" text-anchor="none" style="mix-blend-mode: normal"><g data-paper-data="{&quot;elementType&quot;:&quot;logo&quot;}"><g data-paper-data="{&quot;elementType&quot;:&quot;text&quot;}"><g data-paper-data="{&quot;baseline&quot;:57.03125,&quot;elementType&quot;:&quot;row&quot;}"><g data-paper-data="{&quot;baselineProportion&quot;:0.7913279132791328,&quot;fontSize&quot;:100,&quot;baseline&quot;:57.03125,&quot;elementType&quot;:&quot;word&quot;}"><path d="M69.89359,396.07263h-7.03215l2.31321,-14.24936h-15.17465l8.32755,-53.01874h29.42401l-8.32755,53.01874h-7.21721l-2.31321,14.24936M73.13208,374.60606l6.1994,-39.23201l-14.98959,0.09253l-6.1994,39.13949z" data-paper-data="{&quot;elementType&quot;:&quot;letter&quot;,&quot;baseline&quot;:55.95703125,&quot;baselineProportion&quot;:0.7881705639614855,&quot;fontSize&quot;:100}"></path><path d="M130.22207,340.09299l-6.56951,41.73028h-29.42401l6.66204,-41.73028h7.03215l-5.64423,35.06824h14.98959l5.5517,-35.06824z" data-paper-data="{&quot;elementType&quot;:&quot;letter&quot;,&quot;baseline&quot;:44.04296875,&quot;baselineProportion&quot;:1,&quot;fontSize&quot;:100}"></path><path d="M148.91279,364.79806l-1.75804,10.36317h22.02174l-1.01781,6.66204h-29.42401l6.66204,-41.73028h29.14643l-3.88619,24.70507h-21.74416M149.9306,357.95096h14.98959l1.66551,-11.01087h-14.98959z" data-paper-data="{&quot;elementType&quot;:&quot;letter&quot;,&quot;baseline&quot;:44.04296875,&quot;baselineProportion&quot;:1,&quot;fontSize&quot;:100}"></path><path d="M206.37289,374.88365l1.20287,-7.86491l-21.18899,-5.08906l3.51608,-21.83669h29.33148l-2.31321,15.17465h-7.03215l1.20287,-8.23502h-14.98959l-1.20287,8.23502l20.9114,5.08906l-3.42355,21.37405l-29.14643,0.09253l1.75804,-10.4557h6.93963l-0.55517,3.51608z" data-paper-data="{&quot;elementType&quot;:&quot;letter&quot;,&quot;baseline&quot;:44.04296875,&quot;baselineProportion&quot;:1,&quot;fontSize&quot;:100}"></path><path d="M252.35947,381.82327h-17.02521l5.45917,-35.06824h-8.51261l1.20287,-6.66204h8.51261l1.85057,-12.30627h7.03215l-1.9431,12.30627h10.08559l-1.11034,6.66204h-10.08559l-4.44136,28.4062h10.08559z" data-paper-data="{&quot;elementType&quot;:&quot;letter&quot;,&quot;baseline&quot;:57.03125,&quot;baselineProportion&quot;:1,&quot;fontSize&quot;:100}"></path></g><g data-paper-data="{&quot;baselineProportion&quot;:1,&quot;fontSize&quot;:100,&quot;baseline&quot;:56.0546875,&quot;elementType&quot;:&quot;word&quot;}"><path d="M290.85126,374.60606h22.39186l-1.20287,7.21721h-29.33148l8.32755,-53.01874l7.03215,-0.09253z" data-paper-data="{&quot;elementType&quot;:&quot;letter&quot;,&quot;baseline&quot;:56.0546875,&quot;baselineProportion&quot;:1,&quot;fontSize&quot;:100}"></path><path d="M328.04765,381.82327l6.66204,-41.73028h29.33148l-6.56951,41.73028h-29.42401M355.89868,346.94009l-14.98959,0.09253l-4.44136,28.12861h14.98959z" data-paper-data="{&quot;elementType&quot;:&quot;letter&quot;,&quot;baseline&quot;:44.04296875,&quot;baselineProportion&quot;:1,&quot;fontSize&quot;:100}"></path><path d="M410.4904,340.09299l-18.04303,41.73028h-13.23155l-4.71895,-41.73028h9.43789l1.9431,35.06824h2.68332l13.13902,-35.06824z" data-paper-data="{&quot;elementType&quot;:&quot;letter&quot;,&quot;baseline&quot;:44.04296875,&quot;baselineProportion&quot;:1,&quot;fontSize&quot;:100}"></path><path d="M424.36965,364.79806l-1.75804,10.36317h22.02174l-1.01781,6.66204h-29.42401l6.66204,-41.73028h29.14643l-3.88619,24.70507h-21.74416M425.38746,357.95096h14.98959l1.66551,-11.01087h-14.98959z" data-paper-data="{&quot;elementType&quot;:&quot;letter&quot;,&quot;baseline&quot;:44.04296875,&quot;baselineProportion&quot;:1,&quot;fontSize&quot;:100}"></path></g></g></g></g><g data-paper-data="{&quot;elementType&quot;:&quot;emblem&quot;}"><g data-paper-data="{&quot;baselineProportion&quot;:0.7884615384615384,&quot;fontSize&quot;:100,&quot;baseline&quot;:56.0546875,&quot;elementType&quot;:&quot;word&quot;}"><path d="M142.12121,280.41221h-18.42424l6.06061,-37.33333h-39.75758l21.81818,-138.90909h77.09091l-21.81818,138.90909h-18.90909l-6.06061,37.33333M150.60606,224.16979l16.24242,-102.78788l-39.27273,0.24242l-16.24242,102.54545z" data-paper-data="{&quot;elementType&quot;:&quot;letter&quot;,&quot;baseline&quot;:55.95703125,&quot;baselineProportion&quot;:0.7881705639614855,&quot;fontSize&quot;:100}"></path><path d="M235.45455,213.2607l-5.09091,29.81818h-18.18182l4.84848,-29.81818z" data-paper-data="{&quot;elementType&quot;:&quot;letter&quot;,&quot;baseline&quot;:12.01171875,&quot;baselineProportion&quot;:1,&quot;fontSize&quot;:100}"></path><path d="M282.9697,224.16979h58.66667l-3.15152,18.90909h-76.84848l21.81818,-138.90909l18.42424,-0.24242z" data-paper-data="{&quot;elementType&quot;:&quot;letter&quot;,&quot;baseline&quot;:56.0546875,&quot;baselineProportion&quot;:1,&quot;fontSize&quot;:100}"></path><path d="M410,213.2607l-5.09091,29.81818h-18.18182l4.84848,-29.81818z" data-paper-data="{&quot;elementType&quot;:&quot;letter&quot;,&quot;baseline&quot;:12.01171875,&quot;baselineProportion&quot;:1,&quot;fontSize&quot;:100}"></path></g></g></g></svg>